<svg width="50" height="50" viewBox="0 0 50 50" fill="none" xmlns="http://www.w3.org/2000/svg">
<g clip-path="url(#clip0_1102_1169)">
<path fill-rule="evenodd" clip-rule="evenodd" d="M3.34063 17.3438C4.511 18.1648 5.88443 18.6485 7.31099 18.7421C8.73756 18.8357 10.1624 18.5356 11.43 17.8745C12.6977 17.2135 13.7593 16.2169 14.4991 14.9935C15.2389 13.7702 15.6283 12.3671 15.625 10.9375C15.625 9.59455 15.2787 8.27427 14.6198 7.10411C13.9608 5.93396 13.0113 4.95343 11.8629 4.25717C10.7145 3.56092 9.40606 3.17244 8.06379 3.12924C6.72153 3.08605 5.39079 3.38959 4.20003 4.01057C3.00926 4.63155 1.99868 5.54899 1.26582 6.67436C0.532956 7.79973 0.102563 9.09501 0.0161803 10.4352C-0.0702021 11.7754 0.190343 13.1152 0.772669 14.3253C1.35499 15.5355 2.23944 16.575 3.34063 17.3438ZM7.8125 14.0625C8.6413 14.0625 9.43616 13.7333 10.0222 13.1472C10.6083 12.5612 10.9375 11.7663 10.9375 10.9375C10.9375 10.1087 10.6083 9.31385 10.0222 8.72779C9.43616 8.14174 8.6413 7.8125 7.8125 7.8125C6.9837 7.8125 6.18884 8.14174 5.60279 8.72779C5.01674 9.31385 4.6875 10.1087 4.6875 10.9375C4.6875 11.7663 5.01674 12.5612 5.60279 13.1472C6.18884 13.7333 6.9837 14.0625 7.8125 14.0625ZM42.1875 18.75C41.1612 18.7512 40.1447 18.55 39.1963 18.1578C38.2479 17.7656 37.3862 17.1902 36.6605 16.4645C35.9348 15.7388 35.3594 14.8771 34.9672 13.9287C34.575 12.9803 34.3738 11.9638 34.375 10.9375C34.375 9.39234 34.8332 7.88187 35.6916 6.59711C36.5501 5.31235 37.7702 4.311 39.1978 3.71969C40.6253 3.12839 42.1962 2.97367 43.7116 3.27512C45.2271 3.57657 46.6192 4.32063 47.7118 5.41323C48.8044 6.50583 49.5484 7.89788 49.8499 9.41336C50.1513 10.9288 49.9966 12.4997 49.4053 13.9272C48.814 15.3548 47.8127 16.5749 46.5279 17.4334C45.2431 18.2918 43.7327 18.75 42.1875 18.75ZM45.3125 10.9375C45.3125 11.7663 44.9833 12.5612 44.3972 13.1472C43.8112 13.7333 43.0163 14.0625 42.1875 14.0625C41.3587 14.0625 40.5638 13.7333 39.9778 13.1472C39.3917 12.5612 39.0625 11.7663 39.0625 10.9375C39.0625 10.1087 39.3917 9.31385 39.9778 8.72779C40.5638 8.14174 41.3587 7.8125 42.1875 7.8125C43.0163 7.8125 43.8112 8.14174 44.3972 8.72779C44.9833 9.31385 45.3125 10.1087 45.3125 10.9375ZM18.9656 26.7188C20.136 27.5398 21.5094 28.0235 22.936 28.1171C24.3626 28.2107 25.7874 27.9106 27.055 27.2495C28.3227 26.5885 29.3843 25.5919 30.1241 24.3685C30.8639 23.1452 31.2533 21.7421 31.25 20.3125C31.25 18.9695 30.9037 17.6493 30.2448 16.4791C29.5858 15.309 28.6363 14.3284 27.4879 13.6322C26.3395 12.9359 25.0311 12.5474 23.6888 12.5042C22.3465 12.461 21.0158 12.7646 19.825 13.3856C18.6343 14.0065 17.6237 14.924 16.8908 16.0494C16.158 17.1747 15.7276 18.47 15.6412 19.8102C15.5548 21.1504 15.8153 22.4902 16.3977 23.7003C16.98 24.9104 17.8644 25.95 18.9656 26.7188ZM23.4375 23.4375C24.2663 23.4375 25.0612 23.1083 25.6472 22.5222C26.2333 21.9362 26.5625 21.1413 26.5625 20.3125C26.5625 19.4837 26.2333 18.6888 25.6472 18.1028C25.0612 17.5167 24.2663 17.1875 23.4375 17.1875C22.6087 17.1875 21.8138 17.5167 21.2278 18.1028C20.6417 18.6888 20.3125 19.4837 20.3125 20.3125C20.3125 21.1413 20.6417 21.9362 21.2278 22.5222C21.8138 23.1083 22.6087 23.4375 23.4375 23.4375ZM37.5 43.75C36.4737 43.7512 35.4572 43.55 34.5088 43.1578C33.5604 42.7656 32.6987 42.1902 31.973 41.4645C31.2473 40.7388 30.6719 39.8771 30.2797 38.9287C29.8875 37.9803 29.6863 36.9638 29.6875 35.9375C29.6875 34.3923 30.1457 32.8819 31.0041 31.5971C31.8626 30.3124 33.0827 29.311 34.5103 28.7197C35.9378 28.1284 37.5087 27.9737 39.0241 28.2751C40.5396 28.5766 41.9317 29.3206 43.0243 30.4132C44.1169 31.5058 44.8609 32.8979 45.1624 34.4134C45.4638 35.9288 45.3091 37.4997 44.7178 38.9272C44.1265 40.3548 43.1252 41.5749 41.8404 42.4334C40.5556 43.2918 39.0452 43.75 37.5 43.75ZM40.625 35.9375C40.625 36.7663 40.2958 37.5612 39.7097 38.1472C39.1237 38.7333 38.3288 39.0625 37.5 39.0625C36.6712 39.0625 35.8763 38.7333 35.2903 38.1472C34.7042 37.5612 34.375 36.7663 34.375 35.9375C34.375 35.1087 34.7042 34.3138 35.2903 33.7278C35.8763 33.1417 36.6712 32.8125 37.5 32.8125C38.3288 32.8125 39.1237 33.1417 39.7097 33.7278C40.2958 34.3138 40.625 35.1087 40.625 35.9375ZM14.0625 50C13.0362 50.0012 12.0197 49.8 11.0713 49.4078C10.1229 49.0156 9.26118 48.4402 8.53548 47.7145C7.80978 46.9888 7.23436 46.1271 6.84218 45.1787C6.45 44.2303 6.24877 43.2138 6.25 42.1875C6.25 40.6423 6.7082 39.1319 7.56665 37.8471C8.42509 36.5624 9.64524 35.561 11.0728 34.9697C12.5003 34.3784 14.0712 34.2237 15.5866 34.5251C17.1021 34.8266 18.4942 35.5706 19.5868 36.6632C20.6794 37.7558 21.4234 39.1479 21.7249 40.6634C22.0263 42.1788 21.8716 43.7497 21.2803 45.1772C20.689 46.6048 19.6877 47.8249 18.4029 48.6834C17.1181 49.5418 15.6077 50 14.0625 50ZM17.1875 42.1875C17.1875 43.0163 16.8583 43.8112 16.2722 44.3972C15.6862 44.9833 14.8913 45.3125 14.0625 45.3125C13.2337 45.3125 12.4388 44.9833 11.8528 44.3972C11.2667 43.8112 10.9375 43.0163 10.9375 42.1875C10.9375 41.3587 11.2667 40.5638 11.8528 39.9778C12.4388 39.3917 13.2337 39.0625 14.0625 39.0625C14.8913 39.0625 15.6862 39.3917 16.2722 39.9778C16.8583 40.5638 17.1875 41.3587 17.1875 42.1875Z" fill="#022B06"/>
</g>
<defs>
<clipPath id="clip0_1102_1169">
<rect width="50" height="50" fill="white"/>
</clipPath>
</defs>
</svg>
