<svg width="105" height="106" viewBox="0 0 105 106" fill="none" xmlns="http://www.w3.org/2000/svg">
<path d="M52.5001 7.50293C43.4268 7.50293 34.5573 10.1935 27.0131 15.2343C19.469 20.2752 13.589 27.4399 10.1168 35.8225C6.64463 44.2051 5.73615 53.4291 7.50626 62.3281C9.27637 71.227 13.6456 79.4012 20.0613 85.817C26.4771 92.2327 34.6513 96.6019 43.5503 98.372C52.4492 100.142 61.6732 99.2337 70.0558 95.7615C78.4384 92.2893 85.6031 86.4093 90.644 78.8652C95.6848 71.321 98.3754 62.4515 98.3754 53.3782C98.3754 41.2113 93.5421 29.5428 84.9388 20.9395C76.3355 12.3362 64.667 7.50293 52.5001 7.50293ZM76.9025 56.311L37.5808 75.9718C37.0811 76.2215 36.5258 76.3393 35.9678 76.314C35.4097 76.2888 34.8674 76.1213 34.3923 75.8274C33.9173 75.5336 33.5252 75.1231 33.2534 74.6351C32.9815 74.1471 32.839 73.5977 32.8392 73.0391V33.7174C32.8395 33.159 32.9825 32.61 33.2546 32.1225C33.5266 31.6349 33.9187 31.2249 34.3937 30.9315C34.8687 30.638 35.4108 30.4708 35.9686 30.4456C36.5264 30.4205 37.0813 30.5383 37.5808 30.7879L76.9025 50.4488C77.446 50.7212 77.9031 51.1395 78.2225 51.6568C78.5419 52.1742 78.711 52.7702 78.711 53.3782C78.711 53.9862 78.5419 54.5823 78.2225 55.0996C77.9031 55.617 77.446 56.0353 76.9025 56.3077" fill="white"/>
</svg>
