<svg width="50" height="50" viewBox="0 0 50 50" fill="none" xmlns="http://www.w3.org/2000/svg">
<path d="M23.8125 20.1458C23.8958 20.375 23.9583 20.5833 23.9583 20.8333V31.7083C23.9583 32.75 23.5625 33.75 22.8541 34.5208L17.0416 40.875L9.95829 33.7917L12.5 31.25L18.3333 5.95832C18.4605 5.40187 18.7882 4.9118 19.254 4.58178C19.7197 4.25176 20.2907 4.10494 20.8578 4.16939C21.425 4.23384 21.9485 4.50503 22.3283 4.93113C22.7081 5.35724 22.9176 5.90836 22.9166 6.47916V16.8125C22.577 16.7201 22.2269 16.6711 21.875 16.6667C19.5833 16.6667 17.7083 18.5417 17.7083 20.8333V27.0833C17.7083 27.6667 18.1666 28.125 18.75 28.125C19.3333 28.125 19.7916 27.6667 19.7916 27.0833V20.8333C19.7916 19.6875 20.7291 18.75 21.875 18.75C22.2708 18.75 22.6041 18.8958 22.9166 19.0833C23.1666 19.2292 23.3541 19.4167 23.5416 19.625C23.6041 19.7083 23.6666 19.7917 23.7083 19.8958C23.75 19.9792 23.7916 20.0625 23.8125 20.1458ZM4.16663 39.5833L12.5 45.8333L14.9375 43.1875L7.74996 36L4.16663 39.5833ZM37.5 31.25L31.6666 5.95832C31.5395 5.40187 31.2117 4.9118 30.746 4.58178C30.2802 4.25176 29.7092 4.10494 29.1421 4.16939C28.5749 4.23384 28.0514 4.50503 27.6716 4.93113C27.2918 5.35724 27.0824 5.90836 27.0833 6.47916V16.8125C27.4166 16.7292 27.7708 16.6667 28.125 16.6667C30.4166 16.6667 32.2916 18.5417 32.2916 20.8333V27.0833C32.2916 27.6667 31.8333 28.125 31.25 28.125C30.6666 28.125 30.2083 27.6667 30.2083 27.0833V20.8333C30.2083 19.6875 29.2708 18.75 28.125 18.75C27.7291 18.75 27.3958 18.8958 27.0833 19.0833C26.8333 19.2292 26.6458 19.4167 26.4791 19.625C26.4166 19.7083 26.3333 19.7917 26.2916 19.8958C26.25 19.9792 26.2083 20.0625 26.1875 20.1458C26.1041 20.375 26.0416 20.5833 26.0416 20.8333V31.7083C26.0416 32.75 26.4375 33.75 27.1458 34.5208L32.9583 40.875L40.0416 33.7917L37.5 31.25ZM42.25 36L35.0625 43.1875L37.5 45.8333L45.8333 39.5833L42.25 36Z" fill="#022B06"/>
</svg>
