<svg width="50" height="50" viewBox="0 0 50 50" fill="none" xmlns="http://www.w3.org/2000/svg">
<path d="M40.1895 12.5001H41.6687C42.2212 12.5001 42.7512 12.7196 43.1419 13.1103C43.5326 13.501 43.752 14.0309 43.752 14.5834V29.1668C43.752 29.7193 43.5326 30.2492 43.1419 30.6399C42.7512 31.0306 42.2212 31.2501 41.6687 31.2501H37.502L28.8145 19.0918C28.3093 18.3848 27.5956 17.8534 26.7734 17.5722C25.9512 17.2909 25.0616 17.2737 24.2291 17.523L19.05 19.0772C18.3295 19.2929 17.5641 19.3095 16.8349 19.1254C16.1057 18.9413 15.44 18.5632 14.9083 18.0313L14.2979 17.4209C14.0799 17.203 13.9131 16.9395 13.8093 16.6493C13.7055 16.3592 13.6673 16.0496 13.6976 15.7429C13.7279 15.4362 13.8259 15.14 13.9844 14.8758C14.143 14.6115 14.3582 14.3857 14.6145 14.2147L25.8666 6.71468C26.5383 6.26657 27.3258 6.02329 28.1332 6.01441C28.9406 6.00554 29.7332 6.23145 30.4145 6.66468L39.0729 12.1751C39.4061 12.3869 39.7947 12.4996 40.1895 12.5001ZM10.4729 29.7813L7.10621 32.7272C6.87612 32.9289 6.69328 33.1788 6.57069 33.4592C6.44811 33.7395 6.38878 34.0434 6.39693 34.3493C6.40509 34.6552 6.48052 34.9555 6.61787 35.2289C6.75522 35.5024 6.95111 35.7422 7.19163 35.9313L17.9 44.348C18.1354 44.5333 18.408 44.6657 18.6992 44.736C18.9904 44.8064 19.2933 44.8132 19.5874 44.7558C19.8814 44.6985 20.1596 44.5784 20.403 44.4038C20.6465 44.2291 20.8494 44.004 20.9979 43.7438L22.4645 41.1772C22.9013 40.4128 23.0847 39.5298 22.9885 38.6547C22.8924 37.7797 22.5215 36.9576 21.9291 36.3063L16.3 30.1147C15.5659 29.307 14.5442 28.8196 13.4545 28.7573C12.3649 28.6949 11.2943 29.0627 10.4729 29.7813ZM14.6791 10.4168H6.24996C5.69743 10.4168 5.16752 10.6363 4.77682 11.027C4.38612 11.4177 4.16663 11.9476 4.16663 12.5001V28.1584C4.16674 28.9987 4.42091 29.8193 4.89579 30.5126L5.04996 30.3751L8.41454 27.4293C9.85203 26.1714 11.7257 25.5278 13.6327 25.6369C15.5397 25.746 17.3278 26.599 18.6125 28.0126L24.2416 34.2043C25.2776 35.3436 25.9263 36.7817 26.0947 38.3124C26.2632 39.8431 25.9426 41.3878 25.1791 42.7251L23.8145 45.1126C24.4033 45.3358 25.0349 45.4228 25.662 45.3668C26.2892 45.3109 26.8955 45.1136 27.4354 44.7897L36.6229 39.2772C36.8692 39.1292 37.0823 38.9318 37.2486 38.6974C37.415 38.4631 37.5311 38.1969 37.5896 37.9155C37.6481 37.6341 37.6478 37.3437 37.5886 37.0625C37.5294 36.7812 37.4127 36.5153 37.2458 36.2813L26.2729 20.9084C26.1465 20.7319 25.9682 20.5992 25.7627 20.529C25.5573 20.4588 25.335 20.4545 25.127 20.5168L19.9479 22.0688C18.687 22.4471 17.3473 22.4769 16.0709 22.1553C14.7944 21.8336 13.6289 21.1724 12.6979 20.2418L12.0875 19.6313C11.5424 19.0866 11.1251 18.4277 10.8655 17.7022C10.6059 16.9766 10.5105 16.2025 10.5862 15.4357C10.6619 14.6688 10.9069 13.9283 11.3034 13.2676C11.6999 12.6068 12.2381 12.0423 12.8791 11.6147L14.6791 10.4168Z" fill="#022B06"/>
</svg>
