<svg width="50" height="50" viewBox="0 0 50 50" fill="none" xmlns="http://www.w3.org/2000/svg">
<mask id="mask0_1102_1162" style="mask-type:luminance" maskUnits="userSpaceOnUse" x="4" y="3" width="43" height="44">
<path d="M39.5833 21.8749L44.7917 31.2499L39.5833 32.2916V38.5416H36.4583L30.2083 37.4999L29.1667 44.7916H13.5417L11.4583 33.978C8.25 30.9405 6.25 26.6416 6.25 21.8749C6.25 12.6697 13.7115 5.20825 22.9167 5.20825C32.1219 5.20825 39.5833 12.6697 39.5833 21.8749Z" fill="white" stroke="white" stroke-width="4" stroke-linecap="round" stroke-linejoin="round"/>
<path d="M17.7084 19.7916C17.7084 18.7615 18.0138 17.7545 18.5861 16.898C19.1584 16.0415 19.9719 15.3739 20.9236 14.9797C21.8753 14.5855 22.9225 14.4824 23.9328 14.6833C24.9431 14.8843 25.8712 15.3803 26.5996 16.1087C27.328 16.8371 27.824 17.7652 28.025 18.7755C28.2259 19.7858 28.1228 20.833 27.7286 21.7847C27.3344 22.7364 26.6668 23.5499 25.8103 24.1222C24.9538 24.6945 23.9468 24.9999 22.9167 24.9999V28.1249M22.9167 34.3749V35.4166" stroke="black" stroke-width="4" stroke-linecap="round" stroke-linejoin="round"/>
</mask>
<g mask="url(#mask0_1102_1162)">
<path d="M0 0H50V50H0V0Z" fill="#022B06"/>
</g>
</svg>
